<svg width="83" height="168" viewBox="0 0 83 168" fill="none" xmlns="http://www.w3.org/2000/svg">
<g filter="url(#filter0_d_45_162)">
<path d="M40.1795 30.8861C41.0091 30.4543 41.9965 30.4509 42.8291 30.877L57.7779 38.5276C59.8745 39.6007 59.8745 42.597 57.7779 43.6701L42.8291 51.3207C41.9965 51.7468 41.0091 51.7434 40.1795 51.3116L25.482 43.6609C23.409 42.5818 23.409 39.6159 25.482 38.5368L40.1795 30.8861Z" fill="#D4E3F9"/>
</g>
<path d="M17.835 22.0074C17.835 16.8248 20.612 12.0395 25.1117 9.46823L34.5159 4.09441C38.9558 1.55731 44.4064 1.55731 48.8463 4.09441L58.2505 9.46824C62.7503 12.0395 65.5273 16.8248 65.5273 22.0074V32.4981C65.5273 37.6807 62.7503 42.466 58.2505 45.0373L48.8463 50.4111C44.4064 52.9482 38.9558 52.9482 34.5159 50.4111L25.1117 45.0373C20.6119 42.466 17.835 37.6807 17.835 32.4981V22.0074Z" fill="#D8E7FF"/>
<path d="M20.106 23.0884C20.106 17.9349 22.852 13.172 27.312 10.5899L34.4451 6.46023C38.9211 3.86889 44.441 3.86888 48.917 6.46023L56.0501 10.5899C60.51 13.172 63.2561 17.9349 63.2561 23.0884V31.417C63.2561 36.5704 60.51 41.3334 56.0501 43.9154L48.917 48.0451C44.441 50.6365 38.9211 50.6365 34.4451 48.0451L27.312 43.9154C22.8521 41.3334 20.106 36.5704 20.106 31.417V23.0884Z" fill="#9DBFF9"/>
<path d="M41.6812 34.1953C41.6812 28.6378 44.8701 23.5733 49.8818 21.1716L56.3618 18.0662C59.5573 16.5348 63.2562 18.864 63.2562 22.4074V31.4173C63.2562 36.5708 60.5102 41.3337 56.0502 43.9158L48.9071 48.0513C45.6978 49.9093 41.6812 47.5935 41.6812 43.8851L41.6812 39.7439L41.6812 34.1953Z" fill="#5B8DEF"/>
<path d="M20.106 22.4185C20.106 18.8723 23.8101 16.5432 27.0061 18.08L33.4975 21.2014C38.4999 23.6068 41.681 28.6662 41.681 34.2168V47.3943C41.681 47.3943 41.6996 49.0352 42.0819 49.5875C42.4095 50.0608 42.9361 50.388 43.4124 50.4902C44.1005 50.6379 44.8068 50.4119 44.8068 50.4119C42.8743 51.5388 40.4857 51.5426 38.5496 50.4217L27.312 43.9157C22.8521 41.3336 20.106 36.5707 20.106 31.4172V22.4185Z" fill="#0063F7"/>
<line x1="42.6812" y1="71.5054" x2="42.6811" y2="166.505" stroke="#0063F7" stroke-width="2" stroke-linecap="round"/>
<defs>
<filter id="filter0_d_45_162" x="0.820103" y="7.45243" width="81.6371" height="67.2924" filterUnits="userSpaceOnUse" color-interpolation-filters="sRGB">
<feFlood flood-opacity="0" result="BackgroundImageFix"/>
<feColorMatrix in="SourceAlpha" type="matrix" values="0 0 0 0 0 0 0 0 0 0 0 0 0 0 0 0 0 0 127 0" result="hardAlpha"/>
<feOffset/>
<feGaussianBlur stdDeviation="11.5536"/>
<feColorMatrix type="matrix" values="0 0 0 0 0 0 0 0 0 0.34902 0 0 0 0 0.870588 0 0 0 0.4 0"/>
<feBlend mode="normal" in2="BackgroundImageFix" result="effect1_dropShadow_45_162"/>
<feBlend mode="normal" in="SourceGraphic" in2="effect1_dropShadow_45_162" result="shape"/>
</filter>
</defs>
</svg>
