<svg width="83" height="144" viewBox="0 0 83 144" fill="none" xmlns="http://www.w3.org/2000/svg">
<g filter="url(#filter0_d_50_439)">
<path d="M39.8508 30.5974C40.6765 30.1705 41.6572 30.1671 42.4858 30.5883L57.3985 38.1676C59.5048 39.2381 59.5048 42.2469 57.3985 43.3174L42.4858 50.8967C41.6572 51.3179 40.6765 51.3145 39.8508 50.8877L25.1887 43.3084C23.106 42.2317 23.106 39.2533 25.1887 38.1767L39.8508 30.5974Z" fill="black" fill-opacity="0.01"/>
</g>
<path d="M17.5 21.9412C17.5 16.7431 20.2934 11.9461 24.8143 9.38067L34.2173 4.04474C38.638 1.53613 44.052 1.53613 48.4727 4.04474L57.8757 9.38068C62.3966 11.9461 65.19 16.7431 65.19 21.9412V32.184C65.19 37.382 62.3966 42.1791 57.8757 44.7445L48.4727 50.0804C44.052 52.589 38.638 52.589 34.2173 50.0804L24.8143 44.7445C20.2934 42.1791 17.5 37.382 17.5 32.184V21.9412Z" fill="#D7F1FF"/>
<path d="M19.771 23.0141C19.771 17.8451 22.5335 13.0703 27.0147 10.4939L34.1467 6.39344C38.6036 3.83106 44.0865 3.83106 48.5433 6.39344L55.6754 10.4939C60.1566 13.0703 62.9191 17.8451 62.9191 23.0141V31.1104C62.9191 36.2794 60.1566 41.0542 55.6754 43.6306L48.5433 47.7311C44.0865 50.2934 38.6036 50.2934 34.1467 47.7311L27.0147 43.6306C22.5335 41.0542 19.771 36.2794 19.771 31.1104V23.0141Z" fill="#53BDF5"/>
<path d="M41.3447 34.0474C41.3447 28.4758 44.5497 23.4011 49.5806 21.0069L56.0361 17.9347C59.2306 16.4144 62.9188 18.7437 62.9188 22.2815V31.111C62.9188 36.28 60.1562 41.0548 55.6751 43.6312L48.5581 47.723C45.3488 49.5681 41.3447 47.2515 41.3447 43.5496L41.3447 39.4666L41.3447 34.0474Z" fill="#009FF5"/>
<path d="M19.771 22.2921C19.771 18.7515 23.4644 16.4223 26.6594 17.948L33.1262 21.036C38.1479 23.4339 41.345 28.5036 41.345 34.0684V47.0632C41.345 47.0632 41.3636 48.6926 41.7458 49.241C42.0734 49.7111 42.6 50.036 43.0763 50.1375C43.7644 50.2841 44.4707 50.0597 44.4707 50.0597C42.5364 51.1798 40.1516 51.1835 38.2138 50.0694L27.0147 43.6307C22.5335 41.0543 19.771 36.2795 19.771 31.1105V22.2921Z" fill="#0083C9"/>
<line x1="42.3452" y1="71.125" x2="42.3452" y2="142.125" stroke="#0083C9" stroke-width="2" stroke-linecap="round"/>
<defs>
<filter id="filter0_d_50_439" x="0.519321" y="7.16776" width="81.5658" height="67.1498" filterUnits="userSpaceOnUse" color-interpolation-filters="sRGB">
<feFlood flood-opacity="0" result="BackgroundImageFix"/>
<feColorMatrix in="SourceAlpha" type="matrix" values="0 0 0 0 0 0 0 0 0 0 0 0 0 0 0 0 0 0 127 0" result="hardAlpha"/>
<feOffset/>
<feGaussianBlur stdDeviation="11.5536"/>
<feColorMatrix type="matrix" values="0 0 0 0 0 0 0 0 0 0.513726 0 0 0 0 0.788235 0 0 0 0.4 0"/>
<feBlend mode="normal" in2="BackgroundImageFix" result="effect1_dropShadow_50_439"/>
<feBlend mode="normal" in="SourceGraphic" in2="effect1_dropShadow_50_439" result="shape"/>
</filter>
</defs>
</svg>
