<svg width="82" height="143" viewBox="0 0 82 143" fill="none" xmlns="http://www.w3.org/2000/svg">
<g filter="url(#filter0_d_50_383)">
<path d="M39.5145 30.8861C40.3441 30.4543 41.3315 30.4509 42.1641 30.877L57.1128 38.5276C59.2095 39.6007 59.2094 42.597 57.1128 43.6701L42.1641 51.3207C41.3315 51.7468 40.3441 51.7434 39.5145 51.3116L24.8169 43.6609C22.744 42.5818 22.744 39.6159 24.8169 38.5368L39.5145 30.8861Z" fill="#D6F8E6"/>
</g>
<path d="M17.1699 22.0074C17.1699 16.8248 19.9469 12.0395 24.4467 9.46823L33.8509 4.09441C38.2908 1.55731 43.7414 1.55731 48.1813 4.09441L57.5855 9.46824C62.0852 12.0395 64.8622 16.8248 64.8622 22.0074V32.4981C64.8622 37.6807 62.0852 42.466 57.5855 45.0373L48.1813 50.4111C43.7414 52.9482 38.2908 52.9482 33.8509 50.4111L24.4467 45.0373C19.9469 42.466 17.1699 37.6807 17.1699 32.4981V22.0074Z" fill="#D6F8E6"/>
<path d="M19.4409 23.0884C19.4409 17.935 22.187 13.172 26.6469 10.5899L33.7801 6.46023C38.256 3.86889 43.776 3.86888 48.252 6.46023L55.3851 10.5899C59.845 13.172 62.5911 17.9349 62.5911 23.0884V31.417C62.5911 36.5704 59.845 41.3334 55.3851 43.9154L48.252 48.0451C43.776 50.6365 38.256 50.6365 33.7801 48.0451L26.6469 43.9154C22.187 41.3334 19.4409 36.5704 19.4409 31.417V23.0884Z" fill="#57EBA1"/>
<path d="M41.0161 34.1953C41.0161 28.6378 44.2051 23.5733 49.2168 21.1716L55.6968 18.0662C58.8923 16.5348 62.5912 18.864 62.5912 22.4074V31.4173C62.5912 36.5708 59.8451 41.3337 55.3852 43.9158L48.2421 48.0513C45.0328 49.9093 41.0161 47.5935 41.0161 43.8851L41.0161 39.7439L41.0161 34.1953Z" fill="#39D98A"/>
<path d="M19.4409 22.4185C19.4409 18.8723 23.1451 16.5432 26.3411 18.08L32.8325 21.2014C37.8349 23.6068 41.016 28.6662 41.016 34.2168V47.3943C41.016 47.3943 41.0346 49.0352 41.4168 49.5875C41.7444 50.0608 42.271 50.388 42.7474 50.4902C43.4354 50.6379 44.1418 50.4119 44.1418 50.4119C42.2092 51.5388 39.8206 51.5426 37.8845 50.4217L26.6469 43.9157C22.187 41.3336 19.4409 36.5707 19.4409 31.4172V22.4185Z" fill="#06C270"/>
<line x1="42.0161" y1="71.5054" x2="42.0161" y2="141.505" stroke="#06C270" stroke-width="2" stroke-linecap="round"/>
<defs>
<filter id="filter0_d_50_383" x="0.155064" y="7.45243" width="81.6371" height="67.2924" filterUnits="userSpaceOnUse" color-interpolation-filters="sRGB">
<feFlood flood-opacity="0" result="BackgroundImageFix"/>
<feColorMatrix in="SourceAlpha" type="matrix" values="0 0 0 0 0 0 0 0 0 0 0 0 0 0 0 0 0 0 127 0" result="hardAlpha"/>
<feOffset/>
<feGaussianBlur stdDeviation="11.5536"/>
<feColorMatrix type="matrix" values="0 0 0 0 0.341176 0 0 0 0 0.921569 0 0 0 0 0.631373 0 0 0 0.4 0"/>
<feBlend mode="normal" in2="BackgroundImageFix" result="effect1_dropShadow_50_383"/>
<feBlend mode="normal" in="SourceGraphic" in2="effect1_dropShadow_50_383" result="shape"/>
</filter>
</defs>
</svg>
