<svg width="67" height="54" viewBox="0 0 67 54" fill="none" xmlns="http://www.w3.org/2000/svg">
<path d="M10.8281 40.2812C9.32812 40.2812 7.91016 39.9941 6.57422 39.4199C5.25 38.8457 4.10742 38.0781 3.14648 37.1172C2.19727 36.1445 1.53516 35.0781 1.16016 33.918L6.62695 31.6152C6.82617 32.166 7.11914 32.7051 7.50586 33.2324C7.89258 33.748 8.36133 34.1816 8.91211 34.5332C9.47461 34.873 10.1074 35.043 10.8105 35.043C11.3848 35.043 11.9062 34.9258 12.375 34.6914C12.8438 34.457 13.2188 34.1406 13.5 33.7422C13.793 33.332 13.9395 32.8809 13.9395 32.3887C13.9395 31.8262 13.7637 31.3457 13.4121 30.9473C13.0605 30.5488 12.6152 30.2148 12.0762 29.9453C11.5371 29.6758 10.9746 29.4473 10.3887 29.2598C9.80273 29.0605 9.27539 28.8848 8.80664 28.7324C7.63477 28.3457 6.53906 27.8359 5.51953 27.2031C4.5 26.5703 3.67383 25.7617 3.04102 24.7773C2.4082 23.7812 2.0918 22.5684 2.0918 21.1387C2.0918 19.6738 2.4375 18.3906 3.12891 17.2891C3.82031 16.1875 4.79297 15.332 6.04688 14.7227C7.30078 14.1133 8.75977 13.8086 10.4238 13.8086C11.9238 13.8086 13.2422 14.0488 14.3789 14.5293C15.5156 14.998 16.4707 15.6367 17.2441 16.4453C18.0293 17.2539 18.627 18.1562 19.0371 19.1523L13.7461 21.3145C13.6289 20.998 13.4238 20.6582 13.1309 20.2949C12.8379 19.9199 12.4629 19.5977 12.0059 19.3281C11.5605 19.0586 11.0449 18.9238 10.459 18.9238C9.79102 18.9238 9.18164 19.1289 8.63086 19.5391C8.08008 19.9375 7.80469 20.4941 7.80469 21.209C7.80469 21.7949 7.99805 22.2988 8.38477 22.7207C8.77148 23.1309 9.24609 23.4824 9.80859 23.7754C10.3828 24.0566 10.957 24.291 11.5312 24.4785C12.1172 24.666 12.5977 24.8184 12.9727 24.9355C13.4648 25.0762 14.0801 25.3105 14.8184 25.6387C15.5684 25.9551 16.3125 26.3945 17.0508 26.957C17.7891 27.5195 18.4043 28.2344 18.8965 29.1016C19.4004 29.9688 19.6523 31.0234 19.6523 32.2656C19.6641 33.7422 19.2832 35.0898 18.5098 36.3086C17.748 37.5273 16.6992 38.4941 15.3633 39.209C14.0391 39.9238 12.5273 40.2812 10.8281 40.2812ZM28.0547 31.5625V26.4824H32.1328C32.9531 26.4824 33.6621 26.3242 34.2598 26.0078C34.8691 25.6914 35.3379 25.2578 35.666 24.707C35.9941 24.1445 36.1582 23.5117 36.1582 22.8086C36.1582 21.707 35.7773 20.834 35.0156 20.1895C34.2539 19.5449 33.2227 19.2227 31.9219 19.2227H28.0547V14.0898H32.2734C34.2539 14.0898 35.9531 14.4414 37.3711 15.1445C38.8008 15.8477 39.8965 16.8379 40.6582 18.1152C41.4199 19.3926 41.8008 20.8984 41.8008 22.6328C41.8008 24.4023 41.4082 25.9609 40.623 27.3086C39.8379 28.6445 38.7422 29.6875 37.3359 30.4375C35.9297 31.1875 34.2949 31.5625 32.4316 31.5625H28.0547ZM23.4492 40V14.0898H29.2148V40H23.4492ZM39.8496 40L50.5723 14.0898H55.4238L66.1465 40H60.0469L57.4805 33.373L57.0059 31.1406L53.0684 20.8398H52.9277L49.0078 31.1406L48.5332 33.373L45.9668 40H39.8496ZM45.8789 34.8145V30.0508H60.1172V34.8145H45.8789Z" fill="#0098DA"/>
</svg>
