<svg width="82" height="169" viewBox="0 0 82 169" fill="none" xmlns="http://www.w3.org/2000/svg">
<g filter="url(#filter0_d_46_262)">
<path d="M39.5158 30.5974C40.3415 30.1705 41.3222 30.1671 42.1509 30.5883L57.0636 38.1676C59.1699 39.2381 59.1699 42.2469 57.0636 43.3174L42.1509 50.8967C41.3222 51.3179 40.3415 51.3145 39.5158 50.8877L24.8537 43.3084C22.771 42.2317 22.771 39.2533 24.8537 38.1767L39.5158 30.5974Z" fill="black" fill-opacity="0.01"/>
</g>
<path d="M17.165 21.9412C17.165 16.7431 19.9585 11.9461 24.4793 9.38067L33.8824 4.04474C38.3031 1.53613 43.717 1.53613 48.1377 4.04474L57.5408 9.38068C62.0616 11.9461 64.855 16.7431 64.855 21.9412V32.184C64.855 37.382 62.0616 42.1791 57.5408 44.7445L48.1377 50.0804C43.717 52.589 38.303 52.589 33.8823 50.0804L24.4793 44.7445C19.9584 42.1791 17.165 37.382 17.165 32.184V21.9412Z" fill="#FFE6E6"/>
<path d="M19.436 23.0141C19.436 17.8451 22.1986 13.0703 26.6797 10.4939L33.8118 6.39344C38.2686 3.83106 43.7516 3.83106 48.2084 6.39344L55.3405 10.4939C59.8216 13.0703 62.5841 17.8451 62.5841 23.0141V31.1104C62.5841 36.2794 59.8216 41.0542 55.3405 43.6306L48.2084 47.7311C43.7516 50.2934 38.2686 50.2934 33.8118 47.7311L26.6797 43.6306C22.1986 41.0542 19.436 36.2794 19.436 31.1104V23.0141Z" fill="#FF8080"/>
<path d="M41.0098 34.0474C41.0098 28.4758 44.2147 23.4011 49.2457 21.0069L55.7011 17.9347C58.8956 16.4144 62.5838 18.7437 62.5838 22.2815V31.111C62.5838 36.28 59.8213 41.0548 55.3401 43.6312L48.2232 47.723C45.0139 49.5681 41.0098 47.2515 41.0098 43.5496L41.0098 39.4666L41.0098 34.0474Z" fill="#FF5C5C"/>
<path d="M19.436 22.2921C19.436 18.7515 23.1294 16.4223 26.3244 17.948L32.7913 21.036C37.8129 23.4339 41.0101 28.5036 41.0101 34.0684V47.0632C41.0101 47.0632 41.0287 48.6926 41.4109 49.241C41.7385 49.7111 42.2651 50.036 42.7414 50.1375C43.4294 50.2841 44.1357 50.0597 44.1357 50.0597C42.2014 51.1798 39.8166 51.1835 37.8788 50.0694L26.6797 43.6307C22.1986 41.0543 19.436 36.2795 19.436 31.1105V22.2921Z" fill="#FF3B3B"/>
<line x1="42.0103" y1="71.125" x2="42.0103" y2="167.125" stroke="#FF3B3B" stroke-width="2" stroke-linecap="round"/>
<defs>
<filter id="filter0_d_46_262" x="0.184361" y="7.16776" width="81.5658" height="67.1498" filterUnits="userSpaceOnUse" color-interpolation-filters="sRGB">
<feFlood flood-opacity="0" result="BackgroundImageFix"/>
<feColorMatrix in="SourceAlpha" type="matrix" values="0 0 0 0 0 0 0 0 0 0 0 0 0 0 0 0 0 0 127 0" result="hardAlpha"/>
<feOffset/>
<feGaussianBlur stdDeviation="11.5536"/>
<feColorMatrix type="matrix" values="0 0 0 0 1 0 0 0 0 0.231373 0 0 0 0 0.231373 0 0 0 0.4 0"/>
<feBlend mode="normal" in2="BackgroundImageFix" result="effect1_dropShadow_46_262"/>
<feBlend mode="normal" in="SourceGraphic" in2="effect1_dropShadow_46_262" result="shape"/>
</filter>
</defs>
</svg>
